# xmcd
#
# Track frame offsets: 
#        150
#        14361
#        29241
#        43066
#        57859
#        71835
#        81728
#        95844
#        108137
#        123002
#        136271
#        155371
#        170899
#        182955
#        197455
#        211454
#        225602
#        244426
#        258429
#        273047
#        286218
#        298727
#        308568
#
# Disc length: 4294 seconds
#
# Revision: 2
# Processed by: cddbd v1.5.2PL0 Copyright (c) Steve Scherf et al.
# Submitted via: ExactAudioCopyFreeDBPlugin 1.0
#
DISCID=5c10c417
DTITLE=Charlie Poole - You Ain't Talkin' To Me: Charlie Poole and the 
DTITLE=Roots of Country Music  Disc 3
DYEAR=2005
DGENRE=Old-Timey String Bands 
TTITLE0=Charlie Poole with the North Carolina Ramblers - If I Lose, I 
TTITLE0=Don't Care
TTITLE1=Charlie Poole  feat Red Patterson's Piedmont Log Rollers - The
TTITLE1=Battleship of Maine
TTITLE2=Charlie Poole with the North Carolina Ramblers - Budded Rose
TTITLE3=Charlie Poole  feat Clay Everheart and the North Carolina Cooper
TTITLE3=Boys - Standing by a Window
TTITLE4=Charlie Poole  feat Uncle Dave Macon - Uncle Dave's Beloved So
TTITLE4=lo
TTITLE5=Charlie Poole  feat Billy Murray - Come Take a Trip in My Airs
TTITLE5=hip
TTITLE6=Charlie Poole with The North Carolina Ramblers - I Once Loved 
TTITLE6=a Sailor
TTITLE7=Charlie Poole  feat Sam Moore and Carl Freed - Dixie Medley
TTITLE8=Charlie Poole  feat Kelly Harrell and the Virginia String Band) 
TTITLE8=/ My Wife, She Has Gone and Left Me
TTITLE9=Charlie Poole with the North Carolina Ramblers - My Wife Went 
TTITLE9=Away and Left Me
TTITLE10=Charlie Poole  feat Billy Murray - Baby Rose
TTITLE11=Charlie Poole with the North Carolina Ramblers - Just Keep Wa
TTITLE11=iting Till the Good Time Comes
TTITLE12=Charlie Poole  feat Henry Whitter, Fisher Hendley and Marshall 
TTITLE12=Small - Shuffle Feet, Shuffle
TTITLE13=Charlie Poole with the North Carolina Ramblers - Coon From Te
TTITLE13=nnessee
TTITLE14=Charlie Poole  feat the Georgia Crackers - Coon From Tennesse
TTITLE14=e (ver 2)
TTITLE15=Charlie Poole  feat Big Chief Henry's Indian String Band - On
TTITLE15=the Banks of the Kaney
TTITLE16=Charlie Poole  feat Fred Van Eps - Dixie Medley
TTITLE17=Charlie Poole with the North Carolina Ramblers - Southern Med
TTITLE17=ley
TTITLE18=Charlie Poole  feat Charlie Parker and Mack Woolbright - The Ma
TTITLE18=n That Wrote Home Sweet Home Never Was a Married Man
TTITLE19=Charlie Poole with the North Carolina Ramblers - Sweet Sunny 
TTITLE19=South
TTITLE20=Charlie Poole  feat DaCosta Woltz's Southern Broadcasters - T
TTITLE20=ake Me Back to the Sweet Sunny South
TTITLE21=Charlie Poole  feat Arthur Collins - Oh! Didn't He Ramble
TTITLE22=Charlie Poole with the North Carolina Ramblers - He Rambled
EXTD=
EXTT0=
EXTT1=
EXTT2=
EXTT3=
EXTT4=
EXTT5=
EXTT6=
EXTT7=
EXTT8=
EXTT9=
EXTT10=
EXTT11=
EXTT12=
EXTT13=
EXTT14=
EXTT15=
EXTT16=
EXTT17=
EXTT18=
EXTT19=
EXTT20=
EXTT21=
EXTT22=
PLAYORDER=
